# xmcd
#
# Track frame offsets:
#	150
#	17554
#	34872
#	52942
#	67587
#	83812
#	100968
#	120534
#	135733
#	149298
#	166738
#	181331
#	196111
#	211939
#	228111
#
# Disc length: 3268 seconds
#
# Revision: 1
# Processed by: cddbd v1.5.1PL2 Copyright (c) Steve Scherf et al.
# Submitted via: audiograbber 1.83.01
#
DISCID=b70cc20f
DTITLE=Diego Amaro and Dalessandro - Resultado Final
DYEAR=2005
DGENRE=Sertanejo
TTITLE0=Quem Vê Cara, Não Vê Coração
TTITLE1=É Amor Sem Fim
TTITLE2=Cada Dia Sem Você
TTITLE3=O Limite é o Chão
TTITLE4=Não Dá Mais Pra Enganar
TTITLE5=Vou Te Matar de Amor
TTITLE6=Dar Um Tempo Faz a Gente Se Perder
TTITLE7=Fantástica Loucura
TTITLE8=Deixando o Fogo Pegar
TTITLE9=Não Tenha Dó de Mim
TTITLE10=Quem Namorou, Namorou
TTITLE11=Só Balada, Só Zueira
TTITLE12=Nosso Novo Batidão (partic. Grupo Mate Quente)
TTITLE13=Também Quero Ela Pra Mim
TTITLE14=Resultado Final
EXTD=
EXTT0=
EXTT1=
EXTT2=
EXTT3=
EXTT4=
EXTT5=
EXTT6=
EXTT7=
EXTT8=
EXTT9=
EXTT10=
EXTT11=
EXTT12=
EXTT13=
EXTT14=
PLAYORDER=
